<svg xmlns="http://www.w3.org/2000/svg" xmlns:xlink="http://www.w3.org/1999/xlink" width="800" zoomAndPan="magnify" viewBox="0 0 600 599.999999" height="800" preserveAspectRatio="xMidYMid meet" version="1.0"><defs><g/><clipPath id="920e7b78a0"><path d="M 96.34375 96.34375 L 503.59375 96.34375 L 503.59375 503.59375 L 96.34375 503.59375 Z M 96.34375 96.34375 " clip-rule="nonzero"/></clipPath></defs><g clip-path="url(#920e7b78a0)"><path fill="#7295e4" d="M 181.796875 381.785156 C 170.3125 365.25 162.28125 346.207031 158.582031 325.625 L 96.300781 325.625 C 100.984375 363.09375 115.753906 397.375 137.816406 425.765625 Z M 158.582031 274.273438 C 162.300781 253.691406 170.332031 234.648438 181.796875 218.113281 L 137.816406 174.132812 C 115.753906 202.519531 100.984375 236.804688 96.300781 274.273438 Z M 218.113281 181.796875 C 234.648438 170.3125 253.691406 162.28125 274.273438 158.582031 L 274.273438 96.300781 C 236.804688 100.984375 202.519531 115.753906 174.132812 137.816406 Z M 325.625 96.300781 L 325.625 158.5625 C 346.207031 162.28125 365.25 170.3125 381.785156 181.773438 L 425.765625 137.796875 C 397.375 115.753906 363.09375 100.984375 325.625 96.300781 Z M 441.3125 325.625 C 437.59375 346.207031 429.5625 365.25 418.101562 381.785156 L 462.082031 425.765625 C 484.140625 397.375 498.910156 363.09375 503.59375 325.625 Z M 274.273438 441.3125 C 253.691406 437.59375 234.648438 429.5625 218.113281 418.101562 L 174.132812 462.082031 C 202.519531 484.140625 236.804688 498.910156 274.273438 503.59375 Z M 418.101562 218.113281 C 429.585938 234.648438 437.617188 253.691406 441.3125 274.273438 L 503.574219 274.273438 C 498.890625 236.804688 484.121094 202.519531 462.058594 174.132812 Z M 381.785156 418.101562 C 365.25 429.585938 346.207031 437.617188 325.625 441.3125 L 325.625 503.574219 C 363.09375 498.890625 397.375 484.121094 425.765625 462.058594 Z M 299.949219 207.511719 C 248.984375 207.511719 207.511719 248.984375 207.511719 299.949219 C 207.511719 350.910156 248.984375 392.382812 299.949219 392.382812 C 350.910156 392.382812 392.382812 350.910156 392.382812 299.949219 C 392.382812 248.984375 350.910156 207.511719 299.949219 207.511719 Z M 334.910156 305.96875 C 342.941406 314 342.941406 326.980469 334.910156 335.011719 C 330.902344 339.019531 325.644531 341.03125 320.386719 341.03125 C 315.128906 341.03125 309.871094 339.019531 305.863281 335.011719 L 299.886719 329.035156 L 293.910156 335.011719 C 289.925781 339.019531 284.664062 341.03125 279.40625 341.03125 C 274.148438 341.03125 268.890625 339.019531 264.882812 335.011719 C 256.851562 326.980469 256.851562 314 264.882812 305.96875 L 270.863281 299.988281 L 264.882812 294.011719 C 256.851562 285.980469 256.851562 273 264.882812 264.964844 C 272.917969 256.933594 285.898438 256.933594 293.929688 264.964844 L 299.90625 270.945312 L 305.886719 264.964844 C 313.917969 256.933594 326.898438 256.933594 334.929688 264.964844 C 342.960938 273 342.960938 285.980469 334.929688 294.011719 L 328.953125 299.988281 Z M 334.910156 305.96875 " fill-opacity="1" fill-rule="nonzero"/></g><g fill="#000000" fill-opacity="1"><g transform="translate(-17.682187, 571.034468)"><g><path d="M 5.75 -4.390625 C 5.75 -3.816406 6.003906 -3.359375 6.515625 -3.015625 C 7.035156 -2.671875 7.722656 -2.5 8.578125 -2.5 L 13.578125 -2.5 C 15.679688 -2.5 17.171875 -2.023438 18.046875 -1.078125 C 18.921875 -0.140625 19.359375 1.109375 19.359375 2.671875 C 19.359375 4.085938 18.953125 5.328125 18.140625 6.390625 C 17.335938 7.460938 16.210938 8.296875 14.765625 8.890625 C 13.316406 9.492188 11.625 9.796875 9.6875 9.796875 C 7.519531 9.796875 5.773438 9.359375 4.453125 8.484375 C 3.128906 7.609375 2.46875 6.460938 2.46875 5.046875 C 2.46875 4.171875 2.832031 3.304688 3.5625 2.453125 C 4.300781 1.609375 5.300781 0.898438 6.5625 0.328125 C 5.4375 0.191406 4.539062 -0.175781 3.875 -0.78125 C 3.207031 -1.382812 2.875 -2.132812 2.875 -3.03125 C 2.875 -3.75 3.191406 -4.4375 3.828125 -5.09375 C 4.472656 -5.75 5.332031 -6.28125 6.40625 -6.6875 C 5.414062 -7.226562 4.644531 -7.984375 4.09375 -8.953125 C 3.550781 -9.929688 3.28125 -11.050781 3.28125 -12.3125 L 3.234375 -12.390625 C 3.234375 -14.359375 3.847656 -15.941406 5.078125 -17.140625 C 6.316406 -18.347656 8.140625 -18.953125 10.546875 -18.953125 C 12.015625 -18.953125 13.296875 -18.675781 14.390625 -18.125 L 20.296875 -18.546875 L 20.296875 -16.328125 L 16.453125 -16.53125 C 17.378906 -15.4375 17.84375 -14.082031 17.84375 -12.46875 C 17.84375 -10.445312 17.21875 -8.820312 15.96875 -7.59375 C 14.726562 -6.363281 12.890625 -5.75 10.453125 -5.75 C 9.335938 -5.75 8.328125 -5.910156 7.421875 -6.234375 C 6.898438 -6.097656 6.488281 -5.859375 6.1875 -5.515625 C 5.894531 -5.171875 5.75 -4.796875 5.75 -4.390625 Z M 7.546875 0.328125 C 6.890625 0.546875 6.363281 1.035156 5.96875 1.796875 C 5.570312 2.566406 5.375 3.472656 5.375 4.515625 C 5.375 5.742188 5.8125 6.734375 6.6875 7.484375 C 7.5625 8.234375 8.707031 8.609375 10.125 8.609375 C 11.988281 8.609375 13.492188 8.132812 14.640625 7.1875 C 15.785156 6.25 16.359375 5.015625 16.359375 3.484375 C 16.359375 2.523438 16.023438 1.757812 15.359375 1.1875 C 14.691406 0.613281 13.550781 0.328125 11.9375 0.328125 Z M 6.609375 -12.421875 C 6.609375 -10.890625 7.007812 -9.648438 7.8125 -8.703125 C 8.625 -7.765625 9.695312 -7.296875 11.03125 -7.296875 C 12.175781 -7.296875 13.039062 -7.75 13.625 -8.65625 C 14.21875 -9.5625 14.515625 -10.765625 14.515625 -12.265625 C 14.515625 -13.765625 14.128906 -14.972656 13.359375 -15.890625 C 12.597656 -16.804688 11.578125 -17.265625 10.296875 -17.265625 C 9.085938 -17.265625 8.171875 -16.820312 7.546875 -15.9375 C 6.921875 -15.050781 6.609375 -13.878906 6.609375 -12.421875 Z M 6.609375 -12.421875 "/></g></g><g transform="translate(4.712343, 571.034468)"><g><path d="M 2.21875 -16.78125 L 7.5 -18.875 L 8.15625 -18.875 L 8.15625 -2.046875 L 11.03125 -0.734375 L 11.03125 0 L 2.21875 0 L 2.21875 -0.734375 L 4.875 -2.046875 L 4.875 -14.234375 L 2.21875 -16.53125 Z M 3.890625 -27.484375 C 3.890625 -28.222656 4.113281 -28.816406 4.5625 -29.265625 C 5.019531 -29.710938 5.617188 -29.9375 6.359375 -29.9375 C 7.097656 -29.9375 7.691406 -29.710938 8.140625 -29.265625 C 8.585938 -28.816406 8.8125 -28.222656 8.8125 -27.484375 C 8.8125 -26.742188 8.585938 -26.144531 8.140625 -25.6875 C 7.691406 -25.238281 7.097656 -25.015625 6.359375 -25.015625 C 5.617188 -25.015625 5.019531 -25.238281 4.5625 -25.6875 C 4.113281 -26.144531 3.890625 -26.742188 3.890625 -27.484375 Z M 3.890625 -27.484375 "/></g></g><g transform="translate(17.714296, 571.034468)"><g><path d="M 0.734375 -16.53125 L 0.734375 -16.78125 L 4.109375 -18.453125 L 7.140625 -22.96875 L 7.390625 -22.96875 L 7.390625 -18.453125 L 12.796875 -18.453125 L 12.796875 -16.53125 L 7.390625 -16.53125 L 7.390625 -4.390625 C 7.390625 -3.785156 7.664062 -3.289062 8.21875 -2.90625 C 8.78125 -2.53125 9.523438 -2.34375 10.453125 -2.34375 C 11.253906 -2.34375 11.898438 -2.363281 12.390625 -2.40625 C 12.878906 -2.445312 13.140625 -2.503906 13.171875 -2.578125 L 13.296875 -2.171875 C 12.929688 -1.410156 12.304688 -0.789062 11.421875 -0.3125 C 10.535156 0.164062 9.570312 0.40625 8.53125 0.40625 C 7.1875 0.40625 6.113281 0.03125 5.3125 -0.71875 C 4.507812 -1.46875 4.109375 -2.457031 4.109375 -3.6875 L 4.109375 -16.53125 Z M 0.734375 -16.53125 "/></g></g><g transform="translate(32.233827, 571.034468)"><g><path d="M 2.421875 -13.625 C 2.421875 -14.632812 2.738281 -15.523438 3.375 -16.296875 C 4.019531 -17.078125 4.894531 -17.703125 6 -18.171875 C 7.113281 -18.640625 8.351562 -18.875 9.71875 -18.875 C 11.6875 -18.875 13.171875 -18.460938 14.171875 -17.640625 C 15.171875 -16.816406 15.671875 -15.722656 15.671875 -14.359375 L 15.671875 -2.75 C 15.671875 -2.5 15.898438 -2.296875 16.359375 -2.140625 C 16.828125 -1.992188 17.429688 -1.921875 18.171875 -1.921875 C 18.609375 -1.921875 18.960938 -1.9375 19.234375 -1.96875 C 19.503906 -2 19.640625 -2.023438 19.640625 -2.046875 L 19.765625 -1.8125 C 19.460938 -1.15625 18.960938 -0.617188 18.265625 -0.203125 C 17.578125 0.203125 16.832031 0.40625 16.03125 0.40625 C 15.101562 0.40625 14.332031 0.1875 13.71875 -0.25 C 13.101562 -0.6875 12.703125 -1.285156 12.515625 -2.046875 C 11.742188 -1.234375 10.832031 -0.617188 9.78125 -0.203125 C 8.726562 0.203125 7.613281 0.40625 6.4375 0.40625 C 5.101562 0.40625 4.023438 0.03125 3.203125 -0.71875 C 2.378906 -1.46875 1.96875 -2.445312 1.96875 -3.65625 C 1.96875 -5.019531 2.84375 -6.316406 4.59375 -7.546875 C 6.34375 -8.773438 8.941406 -9.785156 12.390625 -10.578125 L 12.390625 -13.5 C 12.390625 -14.53125 12.070312 -15.367188 11.4375 -16.015625 C 10.8125 -16.660156 9.898438 -16.984375 8.703125 -16.984375 C 7.878906 -16.984375 7.191406 -16.679688 6.640625 -16.078125 C 6.097656 -15.472656 5.828125 -14.722656 5.828125 -13.828125 L 5.828125 -12.671875 L 5.625 -12.46875 L 3.28125 -12.46875 C 2.707031 -12.414062 2.421875 -12.800781 2.421875 -13.625 Z M 8.28125 -2.046875 C 9.101562 -2.046875 9.867188 -2.140625 10.578125 -2.328125 C 11.296875 -2.523438 11.898438 -2.800781 12.390625 -3.15625 L 12.390625 -9.109375 C 9.984375 -8.535156 8.171875 -7.835938 6.953125 -7.015625 C 5.734375 -6.191406 5.125 -5.34375 5.125 -4.46875 C 5.125 -3.726562 5.414062 -3.140625 6 -2.703125 C 6.59375 -2.265625 7.351562 -2.046875 8.28125 -2.046875 Z M 8.28125 -2.046875 "/></g></g><g transform="translate(52.290466, 571.034468)"><g><path d="M 1.8125 -29.078125 L 7.09375 -31.171875 L 7.75 -31.171875 L 7.75 -2.046875 L 10.625 -0.734375 L 10.625 0 L 1.8125 0 L 1.8125 -0.734375 L 4.46875 -2.046875 L 4.46875 -26.53125 L 1.8125 -28.828125 Z M 1.8125 -29.078125 "/></g></g><g transform="translate(64.513122, 571.034468)"><g><path d="M 3.328125 -18.75 C 2.804688 -18.75 2.394531 -18.90625 2.09375 -19.21875 C 1.789062 -19.53125 1.640625 -19.945312 1.640625 -20.46875 C 1.640625 -21.882812 2.035156 -23.113281 2.828125 -24.15625 C 3.617188 -25.195312 4.722656 -26.007812 6.140625 -26.59375 C 7.566406 -27.1875 9.222656 -27.484375 11.109375 -27.484375 C 13.296875 -27.484375 15.050781 -26.816406 16.375 -25.484375 C 17.707031 -24.160156 18.375 -22.40625 18.375 -20.21875 C 18.375 -19.375 18.15625 -18.472656 17.71875 -17.515625 C 17.28125 -16.554688 16.597656 -15.445312 15.671875 -14.1875 C 14.742188 -12.9375 13.539062 -11.425781 12.0625 -9.65625 C 10.582031 -7.894531 8.789062 -5.796875 6.6875 -3.359375 L 16.328125 -3.359375 L 18.296875 -7.46875 L 19.15625 -7.46875 C 19.070312 -6.59375 18.984375 -5.628906 18.890625 -4.578125 C 18.796875 -3.523438 18.707031 -2.5625 18.625 -1.6875 C 18.59375 -1.4375 18.570312 -1.160156 18.5625 -0.859375 C 18.550781 -0.554688 18.53125 -0.269531 18.5 0 L 2.046875 0 L 2.046875 -1.03125 C 4.265625 -3.65625 6.160156 -5.867188 7.734375 -7.671875 C 9.304688 -9.472656 10.582031 -11.054688 11.5625 -12.421875 C 12.550781 -13.796875 13.269531 -15.082031 13.71875 -16.28125 C 14.164062 -17.488281 14.390625 -18.789062 14.390625 -20.1875 C 14.390625 -21.789062 13.976562 -23.082031 13.15625 -24.0625 C 12.34375 -25.050781 11.253906 -25.546875 9.890625 -25.546875 C 8.546875 -25.546875 7.457031 -25.144531 6.625 -24.34375 C 5.789062 -23.539062 5.375 -22.46875 5.375 -21.125 L 5.375 -18.953125 L 5.171875 -18.75 Z M 3.328125 -18.75 "/></g></g><g transform="translate(84.200621, 571.034468)"><g><path d="M 5.953125 -2.25 L 5.953125 -24.8125 L 2.671875 -26.296875 L 2.671875 -27.078125 L 13.953125 -27.078125 C 16.953125 -27.078125 19.570312 -26.609375 21.8125 -25.671875 C 24.0625 -24.742188 25.804688 -23.367188 27.046875 -21.546875 C 28.296875 -19.734375 28.921875 -17.472656 28.921875 -14.765625 C 28.921875 -11.617188 28.320312 -8.960938 27.125 -6.796875 C 25.9375 -4.640625 24.265625 -2.992188 22.109375 -1.859375 C 19.953125 -0.734375 17.4375 -0.113281 14.5625 0 L 2.671875 0 L 2.671875 -0.78125 Z M 12.875 -24.859375 L 9.640625 -24.8125 L 9.640625 -2.25 L 14.484375 -2.25 C 17.648438 -2.363281 20.203125 -3.359375 22.140625 -5.234375 C 24.085938 -7.109375 25.0625 -9.804688 25.0625 -13.328125 C 25.0625 -15.867188 24.554688 -17.992188 23.546875 -19.703125 C 22.535156 -21.410156 21.113281 -22.695312 19.28125 -23.5625 C 17.445312 -24.425781 15.3125 -24.859375 12.875 -24.859375 Z M 12.875 -24.859375 "/></g></g><g transform="translate(115.946714, 571.034468)"><g><path d="M 2.046875 -16.53125 L 2.046875 -16.78125 L 7.171875 -18.875 L 7.828125 -18.875 L 8 -15.421875 L 8 -15.09375 C 8.789062 -16.238281 9.535156 -17.15625 10.234375 -17.84375 C 10.929688 -18.53125 11.550781 -18.875 12.09375 -18.875 C 12.394531 -18.875 12.8125 -18.816406 13.34375 -18.703125 C 13.882812 -18.597656 14.378906 -18.421875 14.828125 -18.171875 C 15.273438 -17.921875 15.5 -17.59375 15.5 -17.1875 C 15.5 -17.019531 15.40625 -16.679688 15.21875 -16.171875 C 15.03125 -15.671875 14.785156 -15.109375 14.484375 -14.484375 L 14.1875 -14.484375 C 14.1875 -14.453125 14.039062 -14.5 13.75 -14.625 C 13.46875 -14.75 13.097656 -14.921875 12.640625 -15.140625 C 12.273438 -15.273438 11.859375 -15.390625 11.390625 -15.484375 C 10.929688 -15.578125 10.5 -15.625 10.09375 -15.625 C 9.84375 -15.625 9.539062 -15.453125 9.1875 -15.109375 C 8.832031 -14.773438 8.4375 -14.304688 8 -13.703125 L 8 -2.046875 L 10.875 -0.734375 L 10.875 0 L 2.046875 0 L 2.046875 -0.734375 L 4.71875 -2.046875 L 4.71875 -14.234375 Z M 2.046875 -16.53125 "/></g></g><g transform="translate(131.409604, 571.034468)"><g><path d="M 11.03125 0.40625 C 9.257812 0.40625 7.695312 0.00390625 6.34375 -0.796875 C 4.988281 -1.609375 3.929688 -2.738281 3.171875 -4.1875 C 2.421875 -5.632812 2.046875 -7.316406 2.046875 -9.234375 C 2.046875 -12.128906 2.796875 -14.457031 4.296875 -16.21875 C 5.804688 -17.988281 8.050781 -18.875 11.03125 -18.875 C 12.832031 -18.875 14.40625 -18.46875 15.75 -17.65625 C 17.09375 -16.851562 18.140625 -15.734375 18.890625 -14.296875 C 19.640625 -12.859375 20.015625 -11.171875 20.015625 -9.234375 C 20.015625 -6.328125 19.257812 -3.992188 17.75 -2.234375 C 16.25 -0.472656 14.007812 0.40625 11.03125 0.40625 Z M 10.453125 -17.140625 C 8.953125 -17.140625 7.804688 -16.414062 7.015625 -14.96875 C 6.222656 -13.519531 5.828125 -11.609375 5.828125 -9.234375 C 5.828125 -6.847656 6.351562 -4.929688 7.40625 -3.484375 C 8.457031 -2.035156 9.859375 -1.3125 11.609375 -1.3125 C 13.140625 -1.3125 14.296875 -2.035156 15.078125 -3.484375 C 15.859375 -4.929688 16.25 -6.847656 16.25 -9.234375 C 16.25 -11.609375 15.71875 -13.519531 14.65625 -14.96875 C 13.601562 -16.414062 12.203125 -17.140625 10.453125 -17.140625 Z M 10.453125 -17.140625 "/></g></g><g transform="translate(153.476009, 571.034468)"><g><path d="M 4.71875 -14.234375 L 2.046875 -16.53125 L 2.046875 -16.78125 L 7.171875 -18.875 L 7.828125 -18.875 L 7.953125 -16.15625 C 8.910156 -16.976562 9.984375 -17.632812 11.171875 -18.125 C 12.367188 -18.625 13.484375 -18.875 14.515625 -18.875 C 16.597656 -18.875 18.265625 -18.085938 19.515625 -16.515625 C 20.773438 -14.941406 21.40625 -12.851562 21.40625 -10.25 C 21.40625 -8.125 21.007812 -6.257812 20.21875 -4.65625 C 19.425781 -3.050781 18.3125 -1.804688 16.875 -0.921875 C 15.4375 -0.0351562 13.765625 0.40625 11.859375 0.40625 C 11.117188 0.40625 10.421875 0.378906 9.765625 0.328125 C 9.109375 0.273438 8.519531 0.207031 8 0.125 L 8 7.390625 L 10.875 8.703125 L 10.875 9.4375 L 2.046875 9.4375 L 2.046875 8.703125 L 4.71875 7.390625 Z M 8.046875 -3.28125 C 8.671875 -2.757812 9.429688 -2.34375 10.328125 -2.03125 C 11.234375 -1.71875 12.125 -1.5625 13 -1.5625 C 14.582031 -1.5625 15.859375 -2.222656 16.828125 -3.546875 C 17.804688 -4.867188 18.296875 -6.613281 18.296875 -8.78125 C 18.296875 -10.96875 17.738281 -12.738281 16.625 -14.09375 C 15.519531 -15.445312 14.050781 -16.125 12.21875 -16.125 C 10.550781 -16.125 9.144531 -15.695312 8 -14.84375 L 8 -3.28125 Z M 8.046875 -3.28125 "/></g></g><g transform="translate(176.936946, 571.034468)"><g><path d="M 2.46875 -1.84375 L 2.5 -5.53125 L 3.078125 -5.53125 C 3.460938 -4.769531 3.863281 -4.046875 4.28125 -3.359375 C 4.707031 -2.679688 5.25 -2.128906 5.90625 -1.703125 C 6.5625 -1.273438 7.394531 -1.0625 8.40625 -1.0625 C 9.445312 -1.0625 10.273438 -1.328125 10.890625 -1.859375 C 11.503906 -2.398438 11.8125 -3.09375 11.8125 -3.9375 C 11.8125 -4.945312 11.445312 -5.785156 10.71875 -6.453125 C 10 -7.128906 8.925781 -7.695312 7.5 -8.15625 C 6.050781 -8.65625 4.957031 -9.332031 4.21875 -10.1875 C 3.488281 -11.050781 3.125 -12.195312 3.125 -13.625 C 3.125 -15.207031 3.617188 -16.476562 4.609375 -17.4375 C 5.609375 -18.394531 6.929688 -18.875 8.578125 -18.875 C 9.472656 -18.875 10.421875 -18.742188 11.421875 -18.484375 C 12.421875 -18.222656 13.289062 -17.875 14.03125 -17.4375 L 14.03125 -13.125 L 13.328125 -13.125 C 13.304688 -13.257812 13.257812 -13.398438 13.1875 -13.546875 C 13.113281 -13.703125 13.050781 -13.835938 13 -13.953125 C 12.675781 -14.742188 12.21875 -15.425781 11.625 -16 C 11.039062 -16.570312 10.40625 -16.953125 9.71875 -17.140625 C 9.363281 -17.222656 9.035156 -17.265625 8.734375 -17.265625 C 7.910156 -17.265625 7.242188 -17.039062 6.734375 -16.59375 C 6.234375 -16.144531 5.984375 -15.5625 5.984375 -14.84375 C 5.984375 -13.882812 6.3125 -13.09375 6.96875 -12.46875 C 7.625 -11.84375 8.597656 -11.3125 9.890625 -10.875 C 11.441406 -10.351562 12.617188 -9.625 13.421875 -8.6875 C 14.234375 -7.757812 14.640625 -6.53125 14.640625 -5 C 14.640625 -3.382812 14.085938 -2.078125 12.984375 -1.078125 C 11.878906 -0.0859375 10.410156 0.40625 8.578125 0.40625 C 7.535156 0.40625 6.453125 0.289062 5.328125 0.0625 C 4.210938 -0.164062 3.257812 -0.460938 2.46875 -0.828125 Z M 2.46875 -1.84375 "/></g></g><g transform="translate(194.450617, 571.034468)"><g><path d="M 10.828125 -0.78125 L 10.828125 -0.046875 L 2.015625 -0.046875 L 2.015625 -0.78125 L 4.671875 -2.09375 L 4.671875 -26.171875 L 2.015625 -28.46875 L 2.015625 -28.71875 L 7.296875 -30.796875 L 7.953125 -30.796875 L 7.953125 -15.671875 C 8.910156 -16.628906 9.910156 -17.398438 10.953125 -17.984375 C 11.992188 -18.578125 13.101562 -18.875 14.28125 -18.875 C 15.96875 -18.875 17.320312 -18.4375 18.34375 -17.5625 C 19.375 -16.6875 19.890625 -15.519531 19.890625 -14.0625 L 19.890625 -2.046875 L 22.5625 -0.734375 L 22.5625 0 L 18.25 0 L 16.53125 -0.046875 L 13.65625 -0.046875 L 13.65625 -0.78125 L 16.53125 -2.09375 L 16.53125 -12.21875 C 16.53125 -13.375 16.15625 -14.296875 15.40625 -14.984375 C 14.65625 -15.679688 13.648438 -16.03125 12.390625 -16.03125 C 11.378906 -16.03125 10.515625 -15.882812 9.796875 -15.59375 C 9.085938 -15.3125 8.472656 -14.925781 7.953125 -14.4375 L 7.953125 -2.09375 Z M 10.828125 -0.78125 "/></g></g><g transform="translate(218.649835, 571.034468)"><g><path d="M 2.21875 -16.78125 L 7.5 -18.875 L 8.15625 -18.875 L 8.15625 -2.046875 L 11.03125 -0.734375 L 11.03125 0 L 2.21875 0 L 2.21875 -0.734375 L 4.875 -2.046875 L 4.875 -14.234375 L 2.21875 -16.53125 Z M 3.890625 -27.484375 C 3.890625 -28.222656 4.113281 -28.816406 4.5625 -29.265625 C 5.019531 -29.710938 5.617188 -29.9375 6.359375 -29.9375 C 7.097656 -29.9375 7.691406 -29.710938 8.140625 -29.265625 C 8.585938 -28.816406 8.8125 -28.222656 8.8125 -27.484375 C 8.8125 -26.742188 8.585938 -26.144531 8.140625 -25.6875 C 7.691406 -25.238281 7.097656 -25.015625 6.359375 -25.015625 C 5.617188 -25.015625 5.019531 -25.238281 4.5625 -25.6875 C 4.113281 -26.144531 3.890625 -26.742188 3.890625 -27.484375 Z M 3.890625 -27.484375 "/></g></g><g transform="translate(231.651787, 571.034468)"><g><path d="M 4.71875 -14.234375 L 2.046875 -16.53125 L 2.046875 -16.78125 L 7.171875 -18.875 L 7.828125 -18.875 L 7.953125 -16.15625 C 8.910156 -16.976562 9.984375 -17.632812 11.171875 -18.125 C 12.367188 -18.625 13.484375 -18.875 14.515625 -18.875 C 16.597656 -18.875 18.265625 -18.085938 19.515625 -16.515625 C 20.773438 -14.941406 21.40625 -12.851562 21.40625 -10.25 C 21.40625 -8.125 21.007812 -6.257812 20.21875 -4.65625 C 19.425781 -3.050781 18.3125 -1.804688 16.875 -0.921875 C 15.4375 -0.0351562 13.765625 0.40625 11.859375 0.40625 C 11.117188 0.40625 10.421875 0.378906 9.765625 0.328125 C 9.109375 0.273438 8.519531 0.207031 8 0.125 L 8 7.390625 L 10.875 8.703125 L 10.875 9.4375 L 2.046875 9.4375 L 2.046875 8.703125 L 4.71875 7.390625 Z M 8.046875 -3.28125 C 8.671875 -2.757812 9.429688 -2.34375 10.328125 -2.03125 C 11.234375 -1.71875 12.125 -1.5625 13 -1.5625 C 14.582031 -1.5625 15.859375 -2.222656 16.828125 -3.546875 C 17.804688 -4.867188 18.296875 -6.613281 18.296875 -8.78125 C 18.296875 -10.96875 17.738281 -12.738281 16.625 -14.09375 C 15.519531 -15.445312 14.050781 -16.125 12.21875 -16.125 C 10.550781 -16.125 9.144531 -15.695312 8 -14.84375 L 8 -3.28125 Z M 8.046875 -3.28125 "/></g></g></g></svg>