<svg xmlns="http://www.w3.org/2000/svg" xmlns:xlink="http://www.w3.org/1999/xlink" width="800" zoomAndPan="magnify" viewBox="0 0 600 599.999999" height="800" preserveAspectRatio="xMidYMid meet" version="1.0"><defs><clipPath id="84e795aeb7"><path d="M 96.34375 96.34375 L 503.59375 96.34375 L 503.59375 503.59375 L 96.34375 503.59375 Z M 96.34375 96.34375 " clip-rule="nonzero"/></clipPath></defs><g clip-path="url(#84e795aeb7)"><path fill="#7295e4" d="M 181.796875 381.785156 C 170.3125 365.25 162.28125 346.207031 158.582031 325.625 L 96.300781 325.625 C 100.984375 363.09375 115.753906 397.375 137.816406 425.765625 Z M 158.582031 274.273438 C 162.300781 253.691406 170.332031 234.648438 181.796875 218.113281 L 137.816406 174.132812 C 115.753906 202.519531 100.984375 236.804688 96.300781 274.273438 Z M 218.113281 181.796875 C 234.648438 170.3125 253.691406 162.28125 274.273438 158.582031 L 274.273438 96.300781 C 236.804688 100.984375 202.519531 115.753906 174.132812 137.816406 Z M 325.625 96.300781 L 325.625 158.5625 C 346.207031 162.28125 365.25 170.3125 381.785156 181.773438 L 425.765625 137.796875 C 397.375 115.753906 363.09375 100.984375 325.625 96.300781 Z M 441.3125 325.625 C 437.59375 346.207031 429.5625 365.25 418.101562 381.785156 L 462.082031 425.765625 C 484.140625 397.375 498.910156 363.09375 503.59375 325.625 Z M 274.273438 441.3125 C 253.691406 437.59375 234.648438 429.5625 218.113281 418.101562 L 174.132812 462.082031 C 202.519531 484.140625 236.804688 498.910156 274.273438 503.59375 Z M 418.101562 218.113281 C 429.585938 234.648438 437.617188 253.691406 441.3125 274.273438 L 503.574219 274.273438 C 498.890625 236.804688 484.121094 202.519531 462.058594 174.132812 Z M 381.785156 418.101562 C 365.25 429.585938 346.207031 437.617188 325.625 441.3125 L 325.625 503.574219 C 363.09375 498.890625 397.375 484.121094 425.765625 462.058594 Z M 299.949219 207.511719 C 248.984375 207.511719 207.511719 248.984375 207.511719 299.949219 C 207.511719 350.910156 248.984375 392.382812 299.949219 392.382812 C 350.910156 392.382812 392.382812 350.910156 392.382812 299.949219 C 392.382812 248.984375 350.910156 207.511719 299.949219 207.511719 Z M 334.910156 305.96875 C 342.941406 314 342.941406 326.980469 334.910156 335.011719 C 330.902344 339.019531 325.644531 341.03125 320.386719 341.03125 C 315.128906 341.03125 309.871094 339.019531 305.863281 335.011719 L 299.886719 329.035156 L 293.910156 335.011719 C 289.925781 339.019531 284.664062 341.03125 279.40625 341.03125 C 274.148438 341.03125 268.890625 339.019531 264.882812 335.011719 C 256.851562 326.980469 256.851562 314 264.882812 305.96875 L 270.863281 299.988281 L 264.882812 294.011719 C 256.851562 285.980469 256.851562 273 264.882812 264.964844 C 272.917969 256.933594 285.898438 256.933594 293.929688 264.964844 L 299.90625 270.945312 L 305.886719 264.964844 C 313.917969 256.933594 326.898438 256.933594 334.929688 264.964844 C 342.960938 273 342.960938 285.980469 334.929688 294.011719 L 328.953125 299.988281 Z M 334.910156 305.96875 " fill-opacity="1" fill-rule="nonzero"/></g></svg>